<svg xmlns="http://www.w3.org/2000/svg" viewBox="0 0 512 512"><defs><path id="arcTop" d="M 84 256 A 172 172 0 0 1 428 256" fill="none"/><path id="arcBot" d="M 92 300 A 168 168 0 0 0 420 300" fill="none"/></defs><circle cx="490.0" cy="256.0" r="24" fill="#0d0d0f"/><circle cx="484.1" cy="308.1" r="24" fill="#0d0d0f"/><circle cx="466.8" cy="357.5" r="24" fill="#0d0d0f"/><circle cx="438.9" cy="401.9" r="24" fill="#0d0d0f"/><circle cx="401.9" cy="438.9" r="24" fill="#0d0d0f"/><circle cx="357.5" cy="466.8" r="24" fill="#0d0d0f"/><circle cx="308.1" cy="484.1" r="24" fill="#0d0d0f"/><circle cx="256.0" cy="490.0" r="24" fill="#0d0d0f"/><circle cx="203.9" cy="484.1" r="24" fill="#0d0d0f"/><circle cx="154.5" cy="466.8" r="24" fill="#0d0d0f"/><circle cx="110.1" cy="438.9" r="24" fill="#0d0d0f"/><circle cx="73.1" cy="401.9" r="24" fill="#0d0d0f"/><circle cx="45.2" cy="357.5" r="24" fill="#0d0d0f"/><circle cx="27.9" cy="308.1" r="24" fill="#0d0d0f"/><circle cx="22.0" cy="256.0" r="24" fill="#0d0d0f"/><circle cx="27.9" cy="203.9" r="24" fill="#0d0d0f"/><circle cx="45.2" cy="154.5" r="24" fill="#0d0d0f"/><circle cx="73.1" cy="110.1" r="24" fill="#0d0d0f"/><circle cx="110.1" cy="73.1" r="24" fill="#0d0d0f"/><circle cx="154.5" cy="45.2" r="24" fill="#0d0d0f"/><circle cx="203.9" cy="27.9" r="24" fill="#0d0d0f"/><circle cx="256.0" cy="22.0" r="24" fill="#0d0d0f"/><circle cx="308.1" cy="27.9" r="24" fill="#0d0d0f"/><circle cx="357.5" cy="45.2" r="24" fill="#0d0d0f"/><circle cx="401.9" cy="73.1" r="24" fill="#0d0d0f"/><circle cx="438.9" cy="110.1" r="24" fill="#0d0d0f"/><circle cx="466.8" cy="154.5" r="24" fill="#0d0d0f"/><circle cx="484.1" cy="203.9" r="24" fill="#0d0d0f"/><circle cx="256" cy="256" r="238" fill="#0d0d0f"/><circle cx="256" cy="256" r="230" fill="none" stroke="#F5C518" stroke-width="4"/><circle cx="256" cy="256" r="196" fill="none" stroke="#F5C518" stroke-width="3"/><text font-family="Oswald, Arial Black, sans-serif" font-size="44" font-weight="900" fill="#F5C518" letter-spacing="6"><textPath href="#arcTop" startOffset="50%" text-anchor="middle">BALAIO DE GATO</textPath></text><text font-family="Oswald, Arial Black, sans-serif" font-size="40" font-weight="900" fill="#F5C518" letter-spacing="8"><textPath href="#arcBot" startOffset="50%" text-anchor="middle">FUTEBOL CLUBE</textPath></text><path transform="translate(62,256) scale(1.4)" fill="#F5C518" d="M0,-12 L3.5,-3.7 12,-3.7 5,1.4 7.4,10 0,4.8 -7.4,10 -5,1.4 -12,-3.7 -3.5,-3.7 Z"/><path transform="translate(450,256) scale(1.4)" fill="#F5C518" d="M0,-12 L3.5,-3.7 12,-3.7 5,1.4 7.4,10 0,4.8 -7.4,10 -5,1.4 -12,-3.7 -3.5,-3.7 Z"/><circle cx="256" cy="256" r="168" fill="#F4ECD4"/><circle cx="256" cy="256" r="168" fill="none" stroke="#0d0d0f" stroke-width="6"/><rect x="126" y="196" width="260" height="120" rx="18" fill="#14532d" stroke="#0d0d0f" stroke-width="6"/><text x="256" y="288" font-family="Oswald, Arial Black, sans-serif" font-size="88" font-weight="900" fill="#F5C518" text-anchor="middle" letter-spacing="4" stroke="#0d0d0f" stroke-width="2">BGFC</text><circle cx="256" cy="362" r="26" fill="#fff" stroke="#0d0d0f" stroke-width="4"/><path d="M256 348 l10 7 -4 12 -12 0 -4 -12 Z" fill="#0d0d0f"/></svg>